<svg version="1.1" xmlns="http://www.w3.org/2000/svg" viewBox="0 0 563 412" width="563" height="412" class="excalidraw-svg">
  <!-- svg-source:excalidraw -->
  
  <defs>
    <style class="style-fonts">
      
    </style>
    
  </defs>
  <rect x="0" y="0" width="563" height="412" fill="#ffffff"/><g stroke-linecap="round" transform="translate(10 125) rotate(0 140 83.5)"><path d="M32 0 C95.6 1.43, 155.58 4.73, 248 0 C269.71 -0.08, 280.57 8.38, 280 32 C280.46 69.6, 279.18 112.83, 280 135 C280.7 155.52, 266.52 166.21, 248 167 C187.05 167.79, 128.02 165.14, 32 167 C13.01 165.63, 1.48 155.77, 0 135 C4.19 105.37, 1.6 78.35, 0 32 C-2.78 7.71, 10.72 2.83, 32 0" stroke="none" stroke-width="0" fill="#a5d8ff"/><path d="M32 0 C91.22 -0.91, 146.43 -1.04, 248 0 M32 0 C93.74 -2.68, 155.91 -2.46, 248 0 M248 0 C270.15 1.59, 279.24 9.06, 280 32 M248 0 C269.92 -1.93, 280.23 8.6, 280 32 M280 32 C281.77 68.24, 279.9 103.4, 280 135 M280 32 C281.22 68.12, 280.83 105.09, 280 135 M280 135 C278.57 156.56, 269.33 166.19, 248 167 M280 135 C281.57 156.14, 271.07 166.49, 248 167 M248 167 C177.72 166.27, 108.17 166.58, 32 167 M248 167 C163.93 167.51, 78.96 166.18, 32 167 M32 167 C10.74 165.99, 1.29 156.72, 0 135 M32 167 C10.22 167.63, 2.22 157.14, 0 135 M0 135 C1.08 113.12, 0.93 86.45, 0 32 M0 135 C-0.43 106.3, 0.13 79.32, 0 32 M0 32 C-0.93 10.69, 9.87 -1.36, 32 0 M0 32 C2.24 9.96, 9.56 -1.68, 32 0" stroke="#1e1e1e" stroke-width="2" fill="none"/></g><g stroke-linecap="round" transform="translate(216 10) rotate(0 168.5 96.5)"><path d="M32 0 C99.47 1.02, 164.42 -0.48, 305 0 C328.54 2.91, 337.48 10.99, 337 32 C335.26 86.34, 332.75 137.33, 337 161 C338.65 185.66, 328.49 192.25, 305 193 C219.2 195.29, 136.73 191.02, 32 193 C13.1 194, -0.14 184.35, 0 161 C-1.24 129.28, -0.79 96.83, 0 32 C0.78 8.71, 10.93 -2.02, 32 0" stroke="none" stroke-width="0" fill="#b2f2bb"/><path d="M32 0 C136.71 0.01, 243.37 -0.59, 305 0 M32 0 C96.81 -0.56, 162.15 -0.31, 305 0 M305 0 C327.85 -0.45, 337.46 8.9, 337 32 M305 0 C324.2 -0.63, 338.34 10.37, 337 32 M337 32 C338.22 82.4, 339.33 130.76, 337 161 M337 32 C337.69 58.59, 336.85 85.07, 337 161 M337 161 C338.93 183.04, 324.92 191.28, 305 193 M337 161 C334.78 182.55, 328.36 193.05, 305 193 M305 193 C241.03 193.25, 174.06 194.12, 32 193 M305 193 C223.75 192.49, 143.88 192.78, 32 193 M32 193 C9.7 191.54, -0.16 180.71, 0 161 M32 193 C8.53 193.42, -1.26 180.53, 0 161 M0 161 C0.18 114.59, 1.42 69.16, 0 32 M0 161 C-0.51 121.76, -0.5 80.65, 0 32 M0 32 C-1.57 10.23, 10.34 0.02, 32 0 M0 32 C-0.05 10.92, 11.29 1.91, 32 0" stroke="#1e1e1e" stroke-width="2" fill="none"/></g><g stroke-linecap="round" transform="translate(253 162) rotate(0 106.5 120)"><path d="M32 0 C77.65 -1.15, 124.3 2.84, 181 0 C202.49 -2.08, 212.29 13.03, 213 32 C208.51 86.89, 207.43 145.21, 213 208 C214.89 231.01, 202.45 240.68, 181 240 C132.18 242.31, 81.51 238.67, 32 240 C13.58 243.31, -3.2 230.31, 0 208 C-0.23 140.29, -3.17 76.91, 0 32 C-2.55 11.33, 13.34 1.25, 32 0" stroke="none" stroke-width="0" fill="#ffec99"/><path d="M32 0 C81.43 1.34, 135.24 0.38, 181 0 M32 0 C77.2 1.16, 124.82 0.47, 181 0 M181 0 C203.62 0.92, 214.85 11.86, 213 32 M181 0 C201.85 0.23, 213.03 10.47, 213 32 M213 32 C213.47 78.9, 215.21 123.03, 213 208 M213 32 C212.4 94.78, 211.67 157.55, 213 208 M213 208 C211.58 229.77, 201.24 240.15, 181 240 M213 208 C211.71 229.83, 202.13 241.72, 181 240 M181 240 C141.6 241.1, 101.85 238.49, 32 240 M181 240 C143.32 238.3, 107.08 238.45, 32 240 M32 240 C11.08 238.23, -1.58 229.07, 0 208 M32 240 C11.59 240.88, -0.03 229.99, 0 208 M0 208 C-0.61 169.41, 0.94 131.99, 0 32 M0 208 C-1.6 146.64, -2.23 85.79, 0 32 M0 32 C1.11 11.23, 9.14 -0.43, 32 0 M0 32 C-1.19 8.85, 12.18 0.17, 32 0" stroke="#f08c00" stroke-width="2" fill="none"/></g></svg>